%TF.GenerationSoftware,KiCad,Pcbnew,(5.99.0-3309-g5424d6fa0)*%
%TF.CreationDate,2020-10-07T16:53:38+02:00*%
%TF.ProjectId,ehz-adapter-v2,65687a2d-6164-4617-9074-65722d76322e,rev?*%
%TF.SameCoordinates,Original*%
%TF.FileFunction,Soldermask,Bot*%
%TF.FilePolarity,Negative*%
%FSLAX46Y46*%
G04 Gerber Fmt 4.6, Leading zero omitted, Abs format (unit mm)*
G04 Created by KiCad (PCBNEW (5.99.0-3309-g5424d6fa0)) date 2020-10-07 16:53:38*
%MOMM*%
%LPD*%
G01*
G04 APERTURE LIST*
%TA.AperFunction,Profile*%
%ADD10C,0.100000*%
%TD*%
%ADD11C,2.100000*%
%ADD12C,2.000000*%
%ADD13R,1.700000X1.700000*%
%ADD14O,1.700000X1.700000*%
%ADD15R,1.800000X1.800000*%
%ADD16C,1.800000*%
G04 APERTURE END LIST*
D10*
X40000000Y-39000000D02*
G75*
G03*
X39000000Y-40000000I0J-1000000D01*
G01*
X40000000Y-39000000D02*
X70000000Y-39000000D01*
X71000000Y-40000000D02*
X71000000Y-70000000D01*
X39000000Y-70000000D02*
X39000000Y-40000000D01*
X71000000Y-40000000D02*
G75*
G03*
X70000000Y-39000000I-1000000J0D01*
G01*
X39000000Y-70000000D02*
G75*
G03*
X40000000Y-71000000I1000000J0D01*
G01*
X70000000Y-71000000D02*
X40000000Y-71000000D01*
X70000000Y-71000000D02*
G75*
G03*
X71000000Y-70000000I0J1000000D01*
G01*
D11*
X62000000Y-68000000D03*
X48000000Y-68000000D03*
X42000000Y-42000000D03*
D12*
X48396000Y-64194800D03*
X50936000Y-64271000D03*
X59064000Y-64271000D03*
X61604000Y-64194800D03*
X48396000Y-45754400D03*
X50936000Y-45729000D03*
X59064000Y-45729000D03*
X61604000Y-45754400D03*
D11*
X68000000Y-42000000D03*
D13*
X41000000Y-46140000D03*
D14*
X43540000Y-46140000D03*
X41000000Y-48680000D03*
X43540000Y-48680000D03*
X41000000Y-51220000D03*
X43540000Y-51220000D03*
X41000000Y-53760000D03*
X43540000Y-53760000D03*
X41000000Y-56300000D03*
X43540000Y-56300000D03*
X41000000Y-58840000D03*
X43540000Y-58840000D03*
X41000000Y-61380000D03*
X43540000Y-61380000D03*
X41000000Y-63920000D03*
X43540000Y-63920000D03*
X41000000Y-66460000D03*
X43540000Y-66460000D03*
X41000000Y-69000000D03*
X43540000Y-69000000D03*
D13*
X66500000Y-46140000D03*
D14*
X69040000Y-46140000D03*
X66500000Y-48680000D03*
X69040000Y-48680000D03*
X66500000Y-51220000D03*
X69040000Y-51220000D03*
X66500000Y-53760000D03*
X69040000Y-53760000D03*
X66500000Y-56300000D03*
X69040000Y-56300000D03*
X66500000Y-58840000D03*
X69040000Y-58840000D03*
X66500000Y-61380000D03*
X69040000Y-61380000D03*
X66500000Y-63920000D03*
X69040000Y-63920000D03*
X66500000Y-66460000D03*
X69040000Y-66460000D03*
X66500000Y-69000000D03*
X69040000Y-69000000D03*
D15*
X59265000Y-55000000D03*
D16*
X56725000Y-55000000D03*
D15*
X50700000Y-55000000D03*
D16*
X53240000Y-55000000D03*
M02*
