%TF.GenerationSoftware,KiCad,Pcbnew,(5.99.0-3309-g5424d6fa0)*%
%TF.CreationDate,2020-10-07T16:53:38+02:00*%
%TF.ProjectId,ehz-adapter-v2,65687a2d-6164-4617-9074-65722d76322e,rev?*%
%TF.SameCoordinates,Original*%
%TF.FileFunction,Legend,Top*%
%TF.FilePolarity,Positive*%
%FSLAX46Y46*%
G04 Gerber Fmt 4.6, Leading zero omitted, Abs format (unit mm)*
G04 Created by KiCad (PCBNEW (5.99.0-3309-g5424d6fa0)) date 2020-10-07 16:53:38*
%MOMM*%
%LPD*%
G01*
G04 APERTURE LIST*
%TA.AperFunction,Profile*%
%ADD10C,0.100000*%
%TD*%
%ADD11C,0.100000*%
%ADD12C,0.120000*%
G04 APERTURE END LIST*
D10*
X40000000Y-39000000D02*
G75*
G03*
X39000000Y-40000000I0J-1000000D01*
G01*
X40000000Y-39000000D02*
X70000000Y-39000000D01*
X71000000Y-40000000D02*
X71000000Y-70000000D01*
X39000000Y-70000000D02*
X39000000Y-40000000D01*
X71000000Y-40000000D02*
G75*
G03*
X70000000Y-39000000I-1000000J0D01*
G01*
X39000000Y-70000000D02*
G75*
G03*
X40000000Y-71000000I1000000J0D01*
G01*
X70000000Y-71000000D02*
X40000000Y-71000000D01*
X70000000Y-71000000D02*
G75*
G03*
X71000000Y-70000000I0J1000000D01*
G01*
D11*
X54466666Y-44366666D02*
X54466666Y-44933333D01*
X54500000Y-45000000D01*
X54533333Y-45033333D01*
X54600000Y-45066666D01*
X54733333Y-45066666D01*
X54800000Y-45033333D01*
X54833333Y-45000000D01*
X54866666Y-44933333D01*
X54866666Y-44366666D01*
X55166666Y-44433333D02*
X55200000Y-44400000D01*
X55266666Y-44366666D01*
X55433333Y-44366666D01*
X55500000Y-44400000D01*
X55533333Y-44433333D01*
X55566666Y-44500000D01*
X55566666Y-44566666D01*
X55533333Y-44666666D01*
X55133333Y-45066666D01*
X55566666Y-45066666D01*
X49116666Y-47616666D02*
X49250000Y-47616666D01*
X49316666Y-47650000D01*
X49383333Y-47716666D01*
X49416666Y-47850000D01*
X49416666Y-48083333D01*
X49383333Y-48216666D01*
X49316666Y-48283333D01*
X49250000Y-48316666D01*
X49116666Y-48316666D01*
X49050000Y-48283333D01*
X48983333Y-48216666D01*
X48950000Y-48083333D01*
X48950000Y-47850000D01*
X48983333Y-47716666D01*
X49050000Y-47650000D01*
X49116666Y-47616666D01*
X49716666Y-47616666D02*
X49716666Y-48183333D01*
X49750000Y-48250000D01*
X49783333Y-48283333D01*
X49850000Y-48316666D01*
X49983333Y-48316666D01*
X50050000Y-48283333D01*
X50083333Y-48250000D01*
X50116666Y-48183333D01*
X50116666Y-47616666D01*
X50350000Y-47616666D02*
X50750000Y-47616666D01*
X50550000Y-48316666D02*
X50550000Y-47616666D01*
X50983333Y-48050000D02*
X51516666Y-48050000D01*
X59700000Y-62566666D02*
X59700000Y-61866666D01*
X60033333Y-62566666D02*
X60033333Y-61866666D01*
X60433333Y-62566666D01*
X60433333Y-61866666D01*
X60766666Y-62300000D02*
X61300000Y-62300000D01*
X61033333Y-62566666D02*
X61033333Y-62033333D01*
X49450000Y-62566666D02*
X49450000Y-61866666D01*
X49783333Y-62566666D02*
X49783333Y-61866666D01*
X50183333Y-62566666D01*
X50183333Y-61866666D01*
X50516666Y-62300000D02*
X51050000Y-62300000D01*
X59616666Y-47616666D02*
X59750000Y-47616666D01*
X59816666Y-47650000D01*
X59883333Y-47716666D01*
X59916666Y-47850000D01*
X59916666Y-48083333D01*
X59883333Y-48216666D01*
X59816666Y-48283333D01*
X59750000Y-48316666D01*
X59616666Y-48316666D01*
X59550000Y-48283333D01*
X59483333Y-48216666D01*
X59450000Y-48083333D01*
X59450000Y-47850000D01*
X59483333Y-47716666D01*
X59550000Y-47650000D01*
X59616666Y-47616666D01*
X60216666Y-47616666D02*
X60216666Y-48183333D01*
X60250000Y-48250000D01*
X60283333Y-48283333D01*
X60350000Y-48316666D01*
X60483333Y-48316666D01*
X60550000Y-48283333D01*
X60583333Y-48250000D01*
X60616666Y-48183333D01*
X60616666Y-47616666D01*
X60850000Y-47616666D02*
X61250000Y-47616666D01*
X61050000Y-48316666D02*
X61050000Y-47616666D01*
X61483333Y-48050000D02*
X62016666Y-48050000D01*
X61750000Y-48316666D02*
X61750000Y-47783333D01*
X45883333Y-57566666D02*
X45850000Y-57633333D01*
X45783333Y-57700000D01*
X45683333Y-57800000D01*
X45650000Y-57866666D01*
X45650000Y-57933333D01*
X45816666Y-57900000D02*
X45783333Y-57966666D01*
X45716666Y-58033333D01*
X45583333Y-58066666D01*
X45350000Y-58066666D01*
X45216666Y-58033333D01*
X45150000Y-57966666D01*
X45116666Y-57900000D01*
X45116666Y-57766666D01*
X45150000Y-57700000D01*
X45216666Y-57633333D01*
X45350000Y-57600000D01*
X45583333Y-57600000D01*
X45716666Y-57633333D01*
X45783333Y-57700000D01*
X45816666Y-57766666D01*
X45816666Y-57900000D01*
X45183333Y-57333333D02*
X45150000Y-57300000D01*
X45116666Y-57233333D01*
X45116666Y-57066666D01*
X45150000Y-57000000D01*
X45183333Y-56966666D01*
X45250000Y-56933333D01*
X45316666Y-56933333D01*
X45416666Y-56966666D01*
X45816666Y-57366666D01*
X45816666Y-56933333D01*
X49016666Y-69616666D02*
X49016666Y-70116666D01*
X48983333Y-70216666D01*
X48916666Y-70283333D01*
X48816666Y-70316666D01*
X48750000Y-70316666D01*
X49283333Y-69616666D02*
X49716666Y-69616666D01*
X49483333Y-69883333D01*
X49583333Y-69883333D01*
X49650000Y-69916666D01*
X49683333Y-69950000D01*
X49716666Y-70016666D01*
X49716666Y-70183333D01*
X49683333Y-70250000D01*
X49650000Y-70283333D01*
X49583333Y-70316666D01*
X49383333Y-70316666D01*
X49316666Y-70283333D01*
X49283333Y-70250000D01*
X54466666Y-62366666D02*
X54466666Y-62933333D01*
X54500000Y-63000000D01*
X54533333Y-63033333D01*
X54600000Y-63066666D01*
X54733333Y-63066666D01*
X54800000Y-63033333D01*
X54833333Y-63000000D01*
X54866666Y-62933333D01*
X54866666Y-62366666D01*
X55566666Y-63066666D02*
X55166666Y-63066666D01*
X55366666Y-63066666D02*
X55366666Y-62366666D01*
X55300000Y-62466666D01*
X55233333Y-62533333D01*
X55166666Y-62566666D01*
X45816666Y-53020666D02*
X45483333Y-53254000D01*
X45816666Y-53420666D02*
X45116666Y-53420666D01*
X45116666Y-53154000D01*
X45150000Y-53087333D01*
X45183333Y-53054000D01*
X45250000Y-53020666D01*
X45350000Y-53020666D01*
X45416666Y-53054000D01*
X45450000Y-53087333D01*
X45483333Y-53154000D01*
X45483333Y-53420666D01*
X45183333Y-52754000D02*
X45150000Y-52720666D01*
X45116666Y-52654000D01*
X45116666Y-52487333D01*
X45150000Y-52420666D01*
X45183333Y-52387333D01*
X45250000Y-52354000D01*
X45316666Y-52354000D01*
X45416666Y-52387333D01*
X45816666Y-52787333D01*
X45816666Y-52354000D01*
X64816666Y-53119666D02*
X64483333Y-53353000D01*
X64816666Y-53519666D02*
X64116666Y-53519666D01*
X64116666Y-53253000D01*
X64150000Y-53186333D01*
X64183333Y-53153000D01*
X64250000Y-53119666D01*
X64350000Y-53119666D01*
X64416666Y-53153000D01*
X64450000Y-53186333D01*
X64483333Y-53253000D01*
X64483333Y-53519666D01*
X64116666Y-52886333D02*
X64116666Y-52453000D01*
X64383333Y-52686333D01*
X64383333Y-52586333D01*
X64416666Y-52519666D01*
X64450000Y-52486333D01*
X64516666Y-52453000D01*
X64683333Y-52453000D01*
X64750000Y-52486333D01*
X64783333Y-52519666D01*
X64816666Y-52586333D01*
X64816666Y-52786333D01*
X64783333Y-52853000D01*
X64750000Y-52886333D01*
X64816666Y-51087666D02*
X64483333Y-51321000D01*
X64816666Y-51487666D02*
X64116666Y-51487666D01*
X64116666Y-51221000D01*
X64150000Y-51154333D01*
X64183333Y-51121000D01*
X64250000Y-51087666D01*
X64350000Y-51087666D01*
X64416666Y-51121000D01*
X64450000Y-51154333D01*
X64483333Y-51221000D01*
X64483333Y-51487666D01*
X64816666Y-50421000D02*
X64816666Y-50821000D01*
X64816666Y-50621000D02*
X64116666Y-50621000D01*
X64216666Y-50687666D01*
X64283333Y-50754333D01*
X64316666Y-50821000D01*
X42036666Y-43426666D02*
X42036666Y-43926666D01*
X42003333Y-44026666D01*
X41936666Y-44093333D01*
X41836666Y-44126666D01*
X41770000Y-44126666D01*
X42336666Y-43493333D02*
X42370000Y-43460000D01*
X42436666Y-43426666D01*
X42603333Y-43426666D01*
X42670000Y-43460000D01*
X42703333Y-43493333D01*
X42736666Y-43560000D01*
X42736666Y-43626666D01*
X42703333Y-43726666D01*
X42303333Y-44126666D01*
X42736666Y-44126666D01*
X64816666Y-55151666D02*
X64483333Y-55385000D01*
X64816666Y-55551666D02*
X64116666Y-55551666D01*
X64116666Y-55285000D01*
X64150000Y-55218333D01*
X64183333Y-55185000D01*
X64250000Y-55151666D01*
X64350000Y-55151666D01*
X64416666Y-55185000D01*
X64450000Y-55218333D01*
X64483333Y-55285000D01*
X64483333Y-55551666D01*
X64350000Y-54551666D02*
X64816666Y-54551666D01*
X64083333Y-54718333D02*
X64583333Y-54885000D01*
X64583333Y-54451666D01*
X64750000Y-57183666D02*
X64783333Y-57217000D01*
X64816666Y-57317000D01*
X64816666Y-57383666D01*
X64783333Y-57483666D01*
X64716666Y-57550333D01*
X64650000Y-57583666D01*
X64516666Y-57617000D01*
X64416666Y-57617000D01*
X64283333Y-57583666D01*
X64216666Y-57550333D01*
X64150000Y-57483666D01*
X64116666Y-57383666D01*
X64116666Y-57317000D01*
X64150000Y-57217000D01*
X64183333Y-57183666D01*
X64816666Y-56517000D02*
X64816666Y-56917000D01*
X64816666Y-56717000D02*
X64116666Y-56717000D01*
X64216666Y-56783666D01*
X64283333Y-56850333D01*
X64316666Y-56917000D01*
X67536666Y-43426666D02*
X67536666Y-43926666D01*
X67503333Y-44026666D01*
X67436666Y-44093333D01*
X67336666Y-44126666D01*
X67270000Y-44126666D01*
X68236666Y-44126666D02*
X67836666Y-44126666D01*
X68036666Y-44126666D02*
X68036666Y-43426666D01*
X67970000Y-43526666D01*
X67903333Y-43593333D01*
X67836666Y-43626666D01*
X45816666Y-55052666D02*
X45483333Y-55286000D01*
X45816666Y-55452666D02*
X45116666Y-55452666D01*
X45116666Y-55186000D01*
X45150000Y-55119333D01*
X45183333Y-55086000D01*
X45250000Y-55052666D01*
X45350000Y-55052666D01*
X45416666Y-55086000D01*
X45450000Y-55119333D01*
X45483333Y-55186000D01*
X45483333Y-55452666D01*
X45116666Y-54819333D02*
X45116666Y-54352666D01*
X45816666Y-54652666D01*
D12*
X63382000Y-43951000D02*
X63382000Y-66049000D01*
X46618000Y-66049000D02*
X46618000Y-43951000D01*
X63382000Y-66049000D02*
X46618000Y-66049000D01*
X46618000Y-43951000D02*
X63382000Y-43951000D01*
X49132000Y-58712000D02*
X48202000Y-58712000D01*
X45972000Y-58712000D02*
X45972000Y-57252000D01*
X49132000Y-58712000D02*
X49132000Y-56552000D01*
X45972000Y-58712000D02*
X46902000Y-58712000D01*
X57221000Y-67061000D02*
X57221000Y-66611000D01*
X57221000Y-66611000D02*
X56271000Y-66611000D01*
X53701000Y-66611000D02*
X53701000Y-65121000D01*
X52751000Y-71031000D02*
X57221000Y-71031000D01*
X52751000Y-66611000D02*
X53701000Y-66611000D01*
X57221000Y-71031000D02*
X57221000Y-70581000D01*
X52751000Y-70581000D02*
X52751000Y-71031000D01*
X52751000Y-67061000D02*
X52751000Y-66611000D01*
X63560000Y-60500000D02*
X63560000Y-58600000D01*
X61240000Y-59100000D02*
X61240000Y-60500000D01*
X47293422Y-53582000D02*
X47810578Y-53582000D01*
X47293422Y-52162000D02*
X47810578Y-52162000D01*
X62156422Y-52293000D02*
X62673578Y-52293000D01*
X62156422Y-53713000D02*
X62673578Y-53713000D01*
X62673578Y-50261000D02*
X62156422Y-50261000D01*
X62673578Y-51681000D02*
X62156422Y-51681000D01*
X39670000Y-47410000D02*
X42270000Y-47410000D01*
X44870000Y-44810000D02*
X44870000Y-70330000D01*
X39670000Y-44810000D02*
X41000000Y-44810000D01*
X39670000Y-70330000D02*
X44870000Y-70330000D01*
X39670000Y-46140000D02*
X39670000Y-44810000D01*
X39670000Y-47410000D02*
X39670000Y-70330000D01*
X42270000Y-47410000D02*
X42270000Y-44810000D01*
X42270000Y-44810000D02*
X44870000Y-44810000D01*
X62156422Y-54325000D02*
X62673578Y-54325000D01*
X62156422Y-55745000D02*
X62673578Y-55745000D01*
X62673578Y-56357000D02*
X62156422Y-56357000D01*
X62673578Y-57777000D02*
X62156422Y-57777000D01*
X65170000Y-70330000D02*
X70370000Y-70330000D01*
X65170000Y-46140000D02*
X65170000Y-44810000D01*
X65170000Y-47410000D02*
X65170000Y-70330000D01*
X67770000Y-44810000D02*
X70370000Y-44810000D01*
X65170000Y-47410000D02*
X67770000Y-47410000D01*
X67770000Y-47410000D02*
X67770000Y-44810000D01*
X70370000Y-44810000D02*
X70370000Y-70330000D01*
X65170000Y-44810000D02*
X66500000Y-44810000D01*
X47810578Y-54242000D02*
X47293422Y-54242000D01*
X47810578Y-55662000D02*
X47293422Y-55662000D01*
M02*
