%TF.GenerationSoftware,KiCad,Pcbnew,(5.99.0-3309-g5424d6fa0)*%
%TF.CreationDate,2020-10-07T16:53:38+02:00*%
%TF.ProjectId,ehz-adapter-v2,65687a2d-6164-4617-9074-65722d76322e,rev?*%
%TF.SameCoordinates,Original*%
%TF.FileFunction,Copper,L2,Bot*%
%TF.FilePolarity,Positive*%
%FSLAX46Y46*%
G04 Gerber Fmt 4.6, Leading zero omitted, Abs format (unit mm)*
G04 Created by KiCad (PCBNEW (5.99.0-3309-g5424d6fa0)) date 2020-10-07 16:53:38*
%MOMM*%
%LPD*%
G01*
G04 APERTURE LIST*
%TA.AperFunction,Profile*%
%ADD10C,0.100000*%
%TD*%
%TA.AperFunction,ComponentPad*%
%ADD11C,2.000000*%
%TD*%
%TA.AperFunction,ComponentPad*%
%ADD12R,1.700000X1.700000*%
%TD*%
%TA.AperFunction,ComponentPad*%
%ADD13O,1.700000X1.700000*%
%TD*%
%TA.AperFunction,ComponentPad*%
%ADD14R,1.800000X1.800000*%
%TD*%
%TA.AperFunction,ComponentPad*%
%ADD15C,1.800000*%
%TD*%
%TA.AperFunction,ViaPad*%
%ADD16C,0.800000*%
%TD*%
%TA.AperFunction,Conductor*%
%ADD17C,0.250000*%
%TD*%
%TA.AperFunction,Conductor*%
%ADD18C,0.500000*%
%TD*%
G04 APERTURE END LIST*
D10*
X40000000Y-39000000D02*
G75*
G03*
X39000000Y-40000000I0J-1000000D01*
G01*
X40000000Y-39000000D02*
X70000000Y-39000000D01*
X71000000Y-40000000D02*
X71000000Y-70000000D01*
X39000000Y-70000000D02*
X39000000Y-40000000D01*
X71000000Y-40000000D02*
G75*
G03*
X70000000Y-39000000I-1000000J0D01*
G01*
X39000000Y-70000000D02*
G75*
G03*
X40000000Y-71000000I1000000J0D01*
G01*
X70000000Y-71000000D02*
X40000000Y-71000000D01*
X70000000Y-71000000D02*
G75*
G03*
X71000000Y-70000000I0J1000000D01*
G01*
D11*
X48396000Y-64194800D03*
X50936000Y-64271000D03*
X59064000Y-64271000D03*
X61604000Y-64194800D03*
X48396000Y-45754400D03*
X50936000Y-45729000D03*
X59064000Y-45729000D03*
X61604000Y-45754400D03*
D12*
X41000000Y-46140000D03*
D13*
X43540000Y-46140000D03*
X41000000Y-48680000D03*
X43540000Y-48680000D03*
X41000000Y-51220000D03*
X43540000Y-51220000D03*
X41000000Y-53760000D03*
X43540000Y-53760000D03*
X41000000Y-56300000D03*
X43540000Y-56300000D03*
X41000000Y-58840000D03*
X43540000Y-58840000D03*
X41000000Y-61380000D03*
X43540000Y-61380000D03*
X41000000Y-63920000D03*
X43540000Y-63920000D03*
X41000000Y-66460000D03*
X43540000Y-66460000D03*
X41000000Y-69000000D03*
X43540000Y-69000000D03*
D12*
X66500000Y-46140000D03*
D13*
X69040000Y-46140000D03*
X66500000Y-48680000D03*
X69040000Y-48680000D03*
X66500000Y-51220000D03*
X69040000Y-51220000D03*
X66500000Y-53760000D03*
X69040000Y-53760000D03*
X66500000Y-56300000D03*
X69040000Y-56300000D03*
X66500000Y-58840000D03*
X69040000Y-58840000D03*
X66500000Y-61380000D03*
X69040000Y-61380000D03*
X66500000Y-63920000D03*
X69040000Y-63920000D03*
X66500000Y-66460000D03*
X69040000Y-66460000D03*
X66500000Y-69000000D03*
X69040000Y-69000000D03*
D14*
X59265000Y-55000000D03*
D15*
X56725000Y-55000000D03*
D14*
X50700000Y-55000000D03*
D15*
X53240000Y-55000000D03*
D16*
X60600000Y-59800000D03*
X57000000Y-66200000D03*
X57000000Y-65400000D03*
X63750000Y-58850000D03*
X60150000Y-53000000D03*
X47550000Y-51150000D03*
X49650000Y-57000000D03*
D17*
X61250000Y-58850000D02*
X59265000Y-56865000D01*
X63750000Y-58850000D02*
X61250000Y-58850000D01*
X59265000Y-56865000D02*
X59265000Y-55000000D01*
X60150000Y-53000000D02*
X60650000Y-52500000D01*
X67800000Y-53320998D02*
X67800000Y-60080000D01*
X60650000Y-52500000D02*
X66979002Y-52500000D01*
X60150000Y-53000000D02*
X49400000Y-53000000D01*
X49400000Y-53000000D02*
X47550000Y-51150000D01*
X66979002Y-52500000D02*
X67800000Y-53320998D01*
X67800000Y-60080000D02*
X66500000Y-61380000D01*
X65260000Y-67700000D02*
X66500000Y-66460000D01*
X49650000Y-59000000D02*
X53850000Y-63200000D01*
X49650000Y-57000000D02*
X49650000Y-59000000D01*
X55300000Y-67700000D02*
X65260000Y-67700000D01*
X53850000Y-66250000D02*
X55300000Y-67700000D01*
X53850000Y-63200000D02*
X53850000Y-66250000D01*
D18*
X61578600Y-45729000D02*
X61604000Y-45754400D01*
X59064000Y-43264000D02*
X59064000Y-45729000D01*
X59064000Y-45729000D02*
X61578600Y-45729000D01*
X43540000Y-53760000D02*
X45040000Y-53760000D01*
X58400000Y-42600000D02*
X59064000Y-43264000D01*
X45800000Y-53000000D02*
X45800000Y-43800000D01*
X47000000Y-42600000D02*
X58400000Y-42600000D01*
X45800000Y-43800000D02*
X47000000Y-42600000D01*
X45040000Y-53760000D02*
X45800000Y-53000000D01*
%TA.AperFunction,Conductor*%
G36*
X46767012Y-51624678D02*
G01*
X46793619Y-51656902D01*
X46810963Y-51686944D01*
X46938747Y-51828862D01*
X47093248Y-51941113D01*
X47093250Y-51941114D01*
X47267713Y-52018790D01*
X47454513Y-52058496D01*
X47562592Y-52058496D01*
X48902705Y-53398609D01*
X48908027Y-53406995D01*
X48958320Y-53454224D01*
X48980033Y-53475937D01*
X48983000Y-53478239D01*
X48988136Y-53482224D01*
X49024699Y-53516558D01*
X49051142Y-53531096D01*
X49074974Y-53549582D01*
X49074976Y-53549583D01*
X49121002Y-53569500D01*
X49164952Y-53593662D01*
X49194176Y-53601166D01*
X49208020Y-53607157D01*
X49221863Y-53613147D01*
X49271396Y-53620993D01*
X49493716Y-53678073D01*
X49464060Y-53712297D01*
X49464056Y-53712300D01*
X49368437Y-53822651D01*
X49307780Y-53955471D01*
X49307780Y-53955474D01*
X49287000Y-54099997D01*
X49287000Y-55900001D01*
X49288385Y-55906368D01*
X49333359Y-56113108D01*
X49333360Y-56113109D01*
X49339983Y-56143555D01*
X49245208Y-56185753D01*
X49193250Y-56208886D01*
X49132057Y-56253345D01*
X49038747Y-56321138D01*
X48910963Y-56463056D01*
X48830400Y-56602597D01*
X48815476Y-56628446D01*
X48756462Y-56810073D01*
X48736500Y-57000000D01*
X48756462Y-57189927D01*
X48764017Y-57213179D01*
X48815476Y-57371554D01*
X48881672Y-57486208D01*
X48910963Y-57536942D01*
X49016500Y-57654153D01*
X49016501Y-58930218D01*
X49014334Y-58939912D01*
X49016501Y-59008857D01*
X49016501Y-59039578D01*
X49017786Y-59049753D01*
X49019362Y-59099883D01*
X49027780Y-59128858D01*
X49030128Y-59147448D01*
X49031561Y-59158791D01*
X49050020Y-59205413D01*
X49064014Y-59253579D01*
X49079373Y-59279551D01*
X49090478Y-59307599D01*
X49103800Y-59325935D01*
X49119958Y-59348174D01*
X49145487Y-59391341D01*
X49145855Y-59391759D01*
X49166953Y-59412857D01*
X49184554Y-59437082D01*
X49184555Y-59437083D01*
X49222904Y-59468808D01*
X53216500Y-63462405D01*
X53216501Y-66180218D01*
X53214334Y-66189912D01*
X53216501Y-66258857D01*
X53216501Y-66289578D01*
X53217786Y-66299753D01*
X53219362Y-66349883D01*
X53227780Y-66378858D01*
X53230128Y-66397448D01*
X53231561Y-66408791D01*
X53250020Y-66455413D01*
X53264014Y-66503579D01*
X53279373Y-66529551D01*
X53290478Y-66557599D01*
X53290479Y-66557600D01*
X53319958Y-66598174D01*
X53345487Y-66641341D01*
X53345855Y-66641759D01*
X53366953Y-66662857D01*
X53384554Y-66687082D01*
X53384555Y-66687083D01*
X53422904Y-66718808D01*
X54802707Y-68098612D01*
X54808027Y-68106995D01*
X54858290Y-68154195D01*
X54880033Y-68175938D01*
X54888143Y-68182228D01*
X54924699Y-68216557D01*
X54951139Y-68231092D01*
X54963058Y-68240337D01*
X54974976Y-68249583D01*
X55021003Y-68269501D01*
X55064952Y-68293662D01*
X55094172Y-68301164D01*
X55121864Y-68313148D01*
X55171403Y-68320995D01*
X55219975Y-68333465D01*
X55220529Y-68333500D01*
X55250368Y-68333500D01*
X55279944Y-68338184D01*
X55329498Y-68333500D01*
X65190222Y-68333500D01*
X65199912Y-68335666D01*
X65268826Y-68333500D01*
X65297104Y-68333500D01*
X65184060Y-68644933D01*
X65143048Y-68871731D01*
X65140837Y-69102193D01*
X65177487Y-69329742D01*
X65247209Y-69533962D01*
X65251952Y-69547855D01*
X65362102Y-69750305D01*
X65504789Y-69931302D01*
X65675931Y-70085670D01*
X65748259Y-70131482D01*
X65870638Y-70208997D01*
X65967027Y-70249218D01*
X66022192Y-70293910D01*
X66044436Y-70361332D01*
X66026698Y-70430077D01*
X65974610Y-70478319D01*
X65918505Y-70491500D01*
X44125423Y-70491500D01*
X44057302Y-70471498D01*
X44010809Y-70417842D01*
X44000705Y-70347568D01*
X44030199Y-70282988D01*
X44070485Y-70252108D01*
X44235868Y-70171981D01*
X44423386Y-70037978D01*
X44585647Y-69874294D01*
X44718009Y-69685612D01*
X44816683Y-69477337D01*
X44878859Y-69255398D01*
X44879004Y-69254000D01*
X43286000Y-69254000D01*
X43286000Y-68746000D01*
X44877194Y-68746000D01*
X44825612Y-68547263D01*
X44730952Y-68337125D01*
X44602240Y-68145942D01*
X44443150Y-67979172D01*
X44258238Y-67841594D01*
X44073789Y-67747805D01*
X44423386Y-67497978D01*
X44529135Y-67391302D01*
X44585646Y-67334296D01*
X44718007Y-67145616D01*
X44750109Y-67077857D01*
X44816683Y-66937337D01*
X44878859Y-66715399D01*
X44902749Y-66486167D01*
X44903000Y-66460003D01*
X44898655Y-66408788D01*
X44883514Y-66230349D01*
X44825612Y-66007264D01*
X44821340Y-65997779D01*
X44730952Y-65797125D01*
X44602240Y-65605942D01*
X44602239Y-65605941D01*
X44602238Y-65605939D01*
X44443151Y-65439173D01*
X44424879Y-65425578D01*
X47524431Y-65425578D01*
X47621278Y-65494405D01*
X47839032Y-65601553D01*
X48071105Y-65672505D01*
X48311543Y-65705441D01*
X48554148Y-65699513D01*
X48792693Y-65654870D01*
X49021027Y-65572664D01*
X49148909Y-65501778D01*
X50064431Y-65501778D01*
X50161278Y-65570605D01*
X50379032Y-65677753D01*
X50611105Y-65748705D01*
X50851543Y-65781641D01*
X51094148Y-65775713D01*
X51332693Y-65731070D01*
X51561027Y-65648864D01*
X51773281Y-65531210D01*
X51808941Y-65503150D01*
X50936000Y-64630209D01*
X50064431Y-65501778D01*
X49148909Y-65501778D01*
X49233281Y-65455010D01*
X49268941Y-65426950D01*
X48396000Y-64554009D01*
X47524431Y-65425578D01*
X44424879Y-65425578D01*
X44365143Y-65381133D01*
X44258238Y-65301594D01*
X44073789Y-65207805D01*
X44423386Y-64957978D01*
X44529135Y-64851302D01*
X44585646Y-64794296D01*
X44718007Y-64605616D01*
X44747140Y-64544124D01*
X44816683Y-64397337D01*
X44843855Y-64300344D01*
X46886686Y-64300344D01*
X46922975Y-64540294D01*
X46997161Y-64771357D01*
X47107339Y-64987594D01*
X47165090Y-65066501D01*
X48036791Y-64194800D01*
X48755209Y-64194800D01*
X49704100Y-65143691D01*
X50576791Y-64271000D01*
X51295209Y-64271000D01*
X52167378Y-65143169D01*
X52261852Y-64999891D01*
X52361333Y-64778539D01*
X52424145Y-64544124D01*
X52448668Y-64302685D01*
X52449000Y-64270999D01*
X52429537Y-64029101D01*
X52371650Y-63793425D01*
X52276826Y-63570033D01*
X52168383Y-63397826D01*
X51295209Y-64271000D01*
X50576791Y-64271000D01*
X49630028Y-63324239D01*
X49628383Y-63321626D01*
X48755209Y-64194800D01*
X48036791Y-64194800D01*
X47164502Y-63322511D01*
X47124222Y-63375194D01*
X47009542Y-63589072D01*
X46930533Y-63818532D01*
X46889227Y-64057670D01*
X46886686Y-64300344D01*
X44843855Y-64300344D01*
X44878859Y-64175399D01*
X44902749Y-63946167D01*
X44903000Y-63920003D01*
X44883514Y-63690349D01*
X44825611Y-63467261D01*
X44730952Y-63257125D01*
X44602240Y-63065942D01*
X44602239Y-63065941D01*
X44602238Y-63065939D01*
X44504823Y-62963821D01*
X47524230Y-62963821D01*
X48396000Y-63835591D01*
X49191570Y-63040021D01*
X50064230Y-63040021D01*
X50936000Y-63911791D01*
X51810305Y-63037486D01*
X51799493Y-63028603D01*
X51589742Y-62906525D01*
X51363184Y-62819558D01*
X51125628Y-62769930D01*
X50883199Y-62758922D01*
X50642126Y-62786815D01*
X50408609Y-62852893D01*
X50188667Y-62955454D01*
X50064230Y-63040021D01*
X49191570Y-63040021D01*
X49270305Y-62961286D01*
X49259493Y-62952403D01*
X49049742Y-62830325D01*
X48823184Y-62743358D01*
X48585628Y-62693730D01*
X48343199Y-62682722D01*
X48102126Y-62710615D01*
X47868609Y-62776693D01*
X47648667Y-62879254D01*
X47524230Y-62963821D01*
X44504823Y-62963821D01*
X44443151Y-62899173D01*
X44434047Y-62892399D01*
X44321499Y-62808661D01*
X44258241Y-62761596D01*
X44258240Y-62761595D01*
X44258238Y-62761594D01*
X44073789Y-62667805D01*
X44423386Y-62417978D01*
X44529135Y-62311302D01*
X44585646Y-62254296D01*
X44718007Y-62065616D01*
X44750108Y-61997859D01*
X44816683Y-61857337D01*
X44878859Y-61635399D01*
X44902749Y-61406167D01*
X44903000Y-61380003D01*
X44899823Y-61342554D01*
X44883514Y-61150349D01*
X44825612Y-60927264D01*
X44821340Y-60917779D01*
X44730952Y-60717125D01*
X44602240Y-60525942D01*
X44602239Y-60525941D01*
X44602238Y-60525939D01*
X44443151Y-60359173D01*
X44258241Y-60221596D01*
X44258240Y-60221595D01*
X44258238Y-60221594D01*
X44073789Y-60127805D01*
X44423386Y-59877978D01*
X44529135Y-59771302D01*
X44585646Y-59714296D01*
X44718007Y-59525616D01*
X44737977Y-59483465D01*
X44816683Y-59317337D01*
X44878859Y-59095399D01*
X44902749Y-58866167D01*
X44903000Y-58840003D01*
X44883514Y-58610349D01*
X44825611Y-58387261D01*
X44730952Y-58177125D01*
X44602240Y-57985942D01*
X44602239Y-57985941D01*
X44602238Y-57985939D01*
X44443151Y-57819173D01*
X44258241Y-57681596D01*
X44258240Y-57681595D01*
X44258238Y-57681594D01*
X44073789Y-57587805D01*
X44423386Y-57337978D01*
X44458969Y-57302083D01*
X44585646Y-57174296D01*
X44718007Y-56985616D01*
X44751577Y-56914759D01*
X44816683Y-56777337D01*
X44878859Y-56555399D01*
X44902749Y-56326167D01*
X44903000Y-56300003D01*
X44889726Y-56143555D01*
X44883514Y-56070349D01*
X44825612Y-55847264D01*
X44824414Y-55844603D01*
X44730952Y-55637125D01*
X44602240Y-55445942D01*
X44602239Y-55445941D01*
X44602238Y-55445939D01*
X44443151Y-55279173D01*
X44258241Y-55141596D01*
X44258240Y-55141595D01*
X44258238Y-55141594D01*
X44073789Y-55047805D01*
X44423386Y-54797978D01*
X44529135Y-54691302D01*
X44585646Y-54634296D01*
X44608981Y-54601032D01*
X44666879Y-54518500D01*
X44983544Y-54518500D01*
X45013355Y-54523035D01*
X45069109Y-54518500D01*
X45082886Y-54518500D01*
X45114677Y-54514794D01*
X45175981Y-54509807D01*
X45189606Y-54508699D01*
X45202343Y-54504573D01*
X45215643Y-54503022D01*
X45286317Y-54477369D01*
X45357830Y-54454202D01*
X45369276Y-54447256D01*
X45381864Y-54442687D01*
X45403372Y-54428586D01*
X45444747Y-54401459D01*
X45509006Y-54362465D01*
X45522786Y-54350295D01*
X45529747Y-54345731D01*
X45580048Y-54292632D01*
X46296421Y-53576260D01*
X46320705Y-53558390D01*
X46356926Y-53515755D01*
X46366665Y-53506016D01*
X46386515Y-53480927D01*
X46415342Y-53446995D01*
X46435197Y-53423624D01*
X46435199Y-53423621D01*
X46441287Y-53411699D01*
X46449594Y-53401198D01*
X46481423Y-53333096D01*
X46497034Y-53302524D01*
X46515615Y-53266135D01*
X46515616Y-53266132D01*
X46518799Y-53253126D01*
X46524465Y-53241001D01*
X46524466Y-53240999D01*
X46539774Y-53167403D01*
X46557645Y-53094370D01*
X46558500Y-53080589D01*
X46558784Y-53076012D01*
X46560477Y-53067873D01*
X46558500Y-52994817D01*
X46558500Y-51719902D01*
X46578502Y-51651781D01*
X46632158Y-51605288D01*
X46702432Y-51595184D01*
X46767012Y-51624678D01*
G37*
%TD.AperFunction*%
%TA.AperFunction,Conductor*%
G36*
X65184060Y-53404933D02*
G01*
X65143048Y-53631731D01*
X65140837Y-53862193D01*
X65177487Y-54089742D01*
X65246756Y-54292636D01*
X65251952Y-54307855D01*
X65362102Y-54510305D01*
X65504789Y-54691302D01*
X65675931Y-54845670D01*
X65812195Y-54931979D01*
X65970864Y-55032480D01*
X65696925Y-55198709D01*
X65620800Y-55264768D01*
X65522851Y-55349764D01*
X65376716Y-55527988D01*
X65262699Y-55728287D01*
X65223380Y-55836610D01*
X65184060Y-55944933D01*
X65143048Y-56171731D01*
X65141178Y-56366641D01*
X65140837Y-56402196D01*
X65150640Y-56463056D01*
X65177487Y-56629742D01*
X65247209Y-56833962D01*
X65251952Y-56847855D01*
X65362102Y-57050305D01*
X65504789Y-57231302D01*
X65675931Y-57385670D01*
X65812195Y-57471979D01*
X65970864Y-57572480D01*
X65696925Y-57738709D01*
X65609888Y-57814237D01*
X65522851Y-57889764D01*
X65376716Y-58067988D01*
X65262699Y-58268287D01*
X65223380Y-58376609D01*
X65184060Y-58484933D01*
X65143048Y-58711731D01*
X65141475Y-58875672D01*
X65140837Y-58942196D01*
X65151574Y-59008857D01*
X65177487Y-59169742D01*
X65248746Y-59378464D01*
X65251952Y-59387855D01*
X65362102Y-59590305D01*
X65504789Y-59771302D01*
X65675931Y-59925670D01*
X65793283Y-60000000D01*
X65970864Y-60112480D01*
X65696925Y-60278709D01*
X65609888Y-60354237D01*
X65522851Y-60429764D01*
X65376716Y-60607988D01*
X65262699Y-60808287D01*
X65223380Y-60916610D01*
X65184060Y-61024933D01*
X65143048Y-61251731D01*
X65141401Y-61423399D01*
X65140837Y-61482196D01*
X65162827Y-61618722D01*
X65177487Y-61709742D01*
X65247209Y-61913962D01*
X65251952Y-61927855D01*
X65362102Y-62130305D01*
X65504789Y-62311302D01*
X65675931Y-62465670D01*
X65812195Y-62551979D01*
X65970864Y-62652480D01*
X65696925Y-62818709D01*
X65627154Y-62879254D01*
X65522851Y-62969764D01*
X65376716Y-63147988D01*
X65262699Y-63348287D01*
X65225273Y-63451395D01*
X65184060Y-63564933D01*
X65143048Y-63791731D01*
X65141502Y-63952900D01*
X65140837Y-64022196D01*
X65146551Y-64057670D01*
X65177487Y-64249742D01*
X65247209Y-64453962D01*
X65251952Y-64467855D01*
X65362102Y-64670305D01*
X65504789Y-64851302D01*
X65675931Y-65005670D01*
X65812195Y-65091979D01*
X65970864Y-65192480D01*
X65696925Y-65358709D01*
X65614742Y-65430025D01*
X65522851Y-65509764D01*
X65376716Y-65687988D01*
X65262699Y-65888287D01*
X65226652Y-65987596D01*
X65184060Y-66104933D01*
X65143048Y-66331731D01*
X65141150Y-66529548D01*
X65140837Y-66562196D01*
X65177487Y-66789740D01*
X65202141Y-66861955D01*
X64997596Y-67066500D01*
X55562404Y-67066500D01*
X54483500Y-65987596D01*
X54483500Y-64376544D01*
X57554686Y-64376544D01*
X57570870Y-64483554D01*
X57590975Y-64616495D01*
X57665162Y-64847559D01*
X57775337Y-65063791D01*
X57795968Y-65091979D01*
X57918666Y-65259626D01*
X58091461Y-65430025D01*
X58289274Y-65570603D01*
X58289277Y-65570604D01*
X58289279Y-65570606D01*
X58507028Y-65677752D01*
X58739105Y-65748705D01*
X58979542Y-65781641D01*
X58979543Y-65781641D01*
X59222148Y-65775713D01*
X59460693Y-65731070D01*
X59689027Y-65648864D01*
X59901281Y-65531210D01*
X59998114Y-65455010D01*
X60091996Y-65381133D01*
X60256257Y-65202499D01*
X60256260Y-65202496D01*
X60343634Y-65069987D01*
X60458665Y-65183424D01*
X60458666Y-65183425D01*
X60472575Y-65197141D01*
X60631462Y-65353826D01*
X60829274Y-65494403D01*
X60829277Y-65494404D01*
X60829279Y-65494406D01*
X61047028Y-65601552D01*
X61279105Y-65672505D01*
X61519542Y-65705441D01*
X61519543Y-65705441D01*
X61762148Y-65699513D01*
X62000693Y-65654870D01*
X62229027Y-65572664D01*
X62342500Y-65509765D01*
X62441281Y-65455010D01*
X62563658Y-65358709D01*
X62631996Y-65304933D01*
X62796259Y-65126297D01*
X62835688Y-65066501D01*
X62929852Y-64923693D01*
X62964069Y-64847557D01*
X63029333Y-64702339D01*
X63092145Y-64467924D01*
X63116668Y-64226485D01*
X63117000Y-64194799D01*
X63097537Y-63952901D01*
X63083250Y-63894732D01*
X63057950Y-63791730D01*
X63039650Y-63717225D01*
X62944824Y-63493828D01*
X62815508Y-63288478D01*
X62655018Y-63106438D01*
X62467494Y-62952404D01*
X62467493Y-62952403D01*
X62467490Y-62952401D01*
X62257746Y-62830327D01*
X62257742Y-62830325D01*
X62031184Y-62743358D01*
X61874452Y-62710615D01*
X61793629Y-62693730D01*
X61712818Y-62690061D01*
X61551199Y-62682722D01*
X61551197Y-62682722D01*
X61310123Y-62710615D01*
X61076610Y-62776692D01*
X60856666Y-62879254D01*
X60655948Y-63015662D01*
X60479622Y-63182405D01*
X60333327Y-63373752D01*
X60310188Y-63404016D01*
X60275509Y-63364680D01*
X60275507Y-63364677D01*
X60181995Y-63258609D01*
X60115018Y-63182638D01*
X59927494Y-63028604D01*
X59927493Y-63028603D01*
X59927490Y-63028601D01*
X59717746Y-62906527D01*
X59717742Y-62906525D01*
X59491184Y-62819558D01*
X59336041Y-62787147D01*
X59253629Y-62769930D01*
X59172818Y-62766261D01*
X59011199Y-62758922D01*
X59011197Y-62758922D01*
X58770123Y-62786815D01*
X58536610Y-62852892D01*
X58316666Y-62955454D01*
X58115948Y-63091862D01*
X57949743Y-63249034D01*
X57939618Y-63258609D01*
X57792222Y-63451395D01*
X57677542Y-63665272D01*
X57598533Y-63894732D01*
X57557227Y-64133870D01*
X57554686Y-64376544D01*
X54483500Y-64376544D01*
X54483500Y-63269778D01*
X54485666Y-63260088D01*
X54483500Y-63191174D01*
X54483500Y-63160422D01*
X54482213Y-63150237D01*
X54480638Y-63100116D01*
X54472222Y-63071146D01*
X54468440Y-63041212D01*
X54468440Y-63041211D01*
X54449976Y-62994575D01*
X54442768Y-62969765D01*
X54435986Y-62946421D01*
X54420629Y-62920454D01*
X54409522Y-62892400D01*
X54409522Y-62892399D01*
X54380042Y-62851823D01*
X54354515Y-62808661D01*
X54354514Y-62808660D01*
X54354513Y-62808658D01*
X54354145Y-62808240D01*
X54333048Y-62787143D01*
X54315447Y-62762917D01*
X54277093Y-62731188D01*
X53394995Y-61849090D01*
X51654935Y-60109030D01*
X53440807Y-60109030D01*
X53478296Y-60356911D01*
X53532566Y-60525941D01*
X53554935Y-60595613D01*
X53663298Y-60808286D01*
X53668753Y-60818993D01*
X53816817Y-61021297D01*
X53944106Y-61146820D01*
X53995323Y-61197327D01*
X54199677Y-61342554D01*
X54424621Y-61453241D01*
X54576523Y-61499682D01*
X54664368Y-61526539D01*
X54788560Y-61543551D01*
X54912751Y-61560563D01*
X54912752Y-61560563D01*
X55163374Y-61554439D01*
X55409803Y-61508321D01*
X55645682Y-61423399D01*
X55723970Y-61380003D01*
X55864951Y-61301856D01*
X55928650Y-61251730D01*
X56061968Y-61146820D01*
X56231660Y-60962281D01*
X56369666Y-60752983D01*
X56472436Y-60524311D01*
X56537323Y-60282150D01*
X56562657Y-60032732D01*
X56563000Y-60000000D01*
X56542894Y-59750107D01*
X56483094Y-59506643D01*
X56385136Y-59275866D01*
X56271490Y-59095401D01*
X56251543Y-59063726D01*
X56085751Y-58875672D01*
X55892025Y-58716544D01*
X55675350Y-58590436D01*
X55441300Y-58500592D01*
X55441299Y-58500592D01*
X55441297Y-58500591D01*
X55195897Y-58449325D01*
X54945454Y-58437952D01*
X54945452Y-58437952D01*
X54862439Y-58447557D01*
X54696408Y-58466767D01*
X54455187Y-58535026D01*
X54455184Y-58535027D01*
X54455182Y-58535028D01*
X54227969Y-58640979D01*
X54020618Y-58781895D01*
X53838465Y-58954149D01*
X53704889Y-59128858D01*
X53686192Y-59153313D01*
X53567724Y-59374254D01*
X53486105Y-59611297D01*
X53443433Y-59858339D01*
X53440807Y-60109030D01*
X51654935Y-60109030D01*
X50283500Y-58737596D01*
X50283500Y-57654153D01*
X50389037Y-57536942D01*
X50418329Y-57486208D01*
X50484524Y-57371554D01*
X50535983Y-57213179D01*
X50543538Y-57189927D01*
X50563500Y-57000000D01*
X50543538Y-56810073D01*
X50484524Y-56628446D01*
X50484523Y-56628443D01*
X50360138Y-56413000D01*
X51600002Y-56413000D01*
X51813105Y-56366642D01*
X51813106Y-56366641D01*
X51813108Y-56366641D01*
X51935944Y-56287700D01*
X52031563Y-56177349D01*
X52092220Y-56044529D01*
X52092220Y-56044528D01*
X52151653Y-55914388D01*
X52208280Y-55965464D01*
X52208281Y-55965466D01*
X52385701Y-56125497D01*
X52587549Y-56253346D01*
X52699353Y-56300000D01*
X52808055Y-56345360D01*
X53040907Y-56398903D01*
X53279453Y-56412449D01*
X53279454Y-56412449D01*
X53516868Y-56385610D01*
X53516871Y-56385609D01*
X53516872Y-56385609D01*
X53746374Y-56319149D01*
X53746375Y-56319149D01*
X53746377Y-56319148D01*
X53961395Y-56214973D01*
X54038845Y-56159626D01*
X55924584Y-56159626D01*
X56072548Y-56253345D01*
X56293055Y-56345360D01*
X56525907Y-56398903D01*
X56764454Y-56412449D01*
X57001868Y-56385610D01*
X57231377Y-56319148D01*
X57446399Y-56214971D01*
X57524762Y-56158971D01*
X56725000Y-55359209D01*
X55924584Y-56159626D01*
X54038845Y-56159626D01*
X54155795Y-56076053D01*
X54324003Y-55906369D01*
X54328470Y-55900002D01*
X54461220Y-55710767D01*
X54461221Y-55710765D01*
X54563518Y-55494845D01*
X54627973Y-55264768D01*
X54644525Y-55105942D01*
X55315977Y-55105942D01*
X55353972Y-55341838D01*
X55431169Y-55567952D01*
X55545358Y-55777826D01*
X55564140Y-55801651D01*
X56365791Y-55000000D01*
X55562739Y-54196948D01*
X55560512Y-54199665D01*
X55442309Y-54407316D01*
X55360786Y-54631909D01*
X55318270Y-54867026D01*
X55315977Y-55105942D01*
X54644525Y-55105942D01*
X54652740Y-55027126D01*
X54653000Y-55000000D01*
X54632799Y-54761923D01*
X54572774Y-54530657D01*
X54565629Y-54514794D01*
X54474640Y-54312808D01*
X54471306Y-54307855D01*
X54341207Y-54114612D01*
X54341205Y-54114609D01*
X54176282Y-53941726D01*
X54067230Y-53860589D01*
X54024517Y-53803879D01*
X54019244Y-53733079D01*
X54053086Y-53670667D01*
X54142443Y-53633500D01*
X55812419Y-53633500D01*
X55880540Y-53653502D01*
X55927033Y-53707158D01*
X55937137Y-53777432D01*
X55913468Y-53829259D01*
X56725000Y-54640791D01*
X57532027Y-53833764D01*
X57509517Y-53803878D01*
X57504245Y-53733077D01*
X57538087Y-53670666D01*
X57627443Y-53633500D01*
X58019820Y-53633500D01*
X57933439Y-53822649D01*
X57933437Y-53822651D01*
X57872780Y-53955471D01*
X57872780Y-53955474D01*
X57852000Y-54099997D01*
X57852000Y-54232211D01*
X57084210Y-55000000D01*
X57852000Y-55767789D01*
X57852000Y-55900002D01*
X57883440Y-56044529D01*
X57898359Y-56113108D01*
X57977300Y-56235944D01*
X58087651Y-56331563D01*
X58220471Y-56392220D01*
X58289835Y-56402193D01*
X58364997Y-56413000D01*
X58631500Y-56413000D01*
X58631500Y-56795222D01*
X58629334Y-56804912D01*
X58629334Y-56804913D01*
X58630389Y-56838464D01*
X58631500Y-56873826D01*
X58631500Y-56904577D01*
X58632787Y-56914759D01*
X58634362Y-56964883D01*
X58642779Y-56993857D01*
X58646560Y-57023788D01*
X58665024Y-57070424D01*
X58679014Y-57118578D01*
X58692316Y-57141070D01*
X58694372Y-57144547D01*
X58705478Y-57172600D01*
X58734960Y-57213179D01*
X58760485Y-57256338D01*
X58760487Y-57256341D01*
X58760855Y-57256759D01*
X58781952Y-57277856D01*
X58799554Y-57302083D01*
X58837909Y-57333813D01*
X60752707Y-59248612D01*
X60758027Y-59256995D01*
X60808290Y-59304195D01*
X60830033Y-59325938D01*
X60838143Y-59332228D01*
X60874699Y-59366557D01*
X60901139Y-59381092D01*
X60919631Y-59395436D01*
X60924978Y-59399584D01*
X60971004Y-59419502D01*
X61014952Y-59443662D01*
X61044177Y-59451166D01*
X61052203Y-59454639D01*
X61071864Y-59463147D01*
X61121395Y-59470993D01*
X61169975Y-59483465D01*
X61170529Y-59483500D01*
X61200369Y-59483500D01*
X61229944Y-59488184D01*
X61279498Y-59483500D01*
X63097904Y-59483500D01*
X63138750Y-59528864D01*
X63293248Y-59641113D01*
X63293250Y-59641114D01*
X63467713Y-59718790D01*
X63654513Y-59758496D01*
X63845487Y-59758496D01*
X64032287Y-59718790D01*
X64206750Y-59641114D01*
X64206752Y-59641113D01*
X64361253Y-59528862D01*
X64489037Y-59386944D01*
X64584524Y-59221554D01*
X64589768Y-59205414D01*
X64643538Y-59039927D01*
X64663500Y-58850000D01*
X64643538Y-58660073D01*
X64584524Y-58478446D01*
X64561145Y-58437952D01*
X64489037Y-58313056D01*
X64361253Y-58171138D01*
X64206752Y-58058887D01*
X64206750Y-58058886D01*
X64032287Y-57981210D01*
X63845487Y-57941504D01*
X63654513Y-57941504D01*
X63467713Y-57981210D01*
X63293250Y-58058886D01*
X63293248Y-58058887D01*
X63280722Y-58067988D01*
X63138749Y-58171137D01*
X63097904Y-58216500D01*
X61512405Y-58216500D01*
X59898500Y-56602596D01*
X59898500Y-56413000D01*
X60165002Y-56413000D01*
X60378105Y-56366642D01*
X60378106Y-56366641D01*
X60378108Y-56366641D01*
X60500944Y-56287700D01*
X60596563Y-56177349D01*
X60657220Y-56044529D01*
X60667610Y-55972264D01*
X60678000Y-55900003D01*
X60678000Y-54099998D01*
X60610253Y-53788571D01*
X60761253Y-53678862D01*
X60889037Y-53536944D01*
X60984525Y-53371553D01*
X61016746Y-53272384D01*
X61043538Y-53189927D01*
X61043538Y-53189924D01*
X61061871Y-53133500D01*
X65282586Y-53133500D01*
X65184060Y-53404933D01*
G37*
%TD.AperFunction*%
%TA.AperFunction,Conductor*%
G36*
X70098305Y-39521102D02*
G01*
X70192593Y-39550650D01*
X70279014Y-39598554D01*
X70354036Y-39662855D01*
X70414596Y-39740930D01*
X70458222Y-39829588D01*
X70477005Y-39901695D01*
X70484708Y-39931268D01*
X70491500Y-40019532D01*
X70491500Y-45469032D01*
X70471498Y-45537153D01*
X70417842Y-45583646D01*
X70347568Y-45593750D01*
X70282988Y-45564256D01*
X70250618Y-45520782D01*
X70230952Y-45477125D01*
X70102240Y-45285942D01*
X70102238Y-45285939D01*
X69943151Y-45119173D01*
X69758241Y-44981596D01*
X69552794Y-44877141D01*
X69332684Y-44808796D01*
X69104206Y-44778513D01*
X69104203Y-44778513D01*
X68989049Y-44782836D01*
X68873892Y-44787160D01*
X68648328Y-44834488D01*
X68648326Y-44834489D01*
X68648325Y-44834489D01*
X68433963Y-44919144D01*
X68236925Y-45038709D01*
X68144201Y-45119172D01*
X68062851Y-45189764D01*
X68052849Y-45201962D01*
X67994191Y-45241956D01*
X67923221Y-45243888D01*
X67862472Y-45207144D01*
X67832296Y-45148855D01*
X67816642Y-45076894D01*
X67737699Y-44954055D01*
X67627349Y-44858437D01*
X67494526Y-44797780D01*
X67350003Y-44777000D01*
X66754000Y-44777000D01*
X66754000Y-46394000D01*
X65137000Y-46394000D01*
X65137000Y-46990002D01*
X65183358Y-47203105D01*
X65262301Y-47325945D01*
X65372651Y-47421563D01*
X65521950Y-47489745D01*
X65520389Y-47493164D01*
X65556853Y-47509818D01*
X65595234Y-47569546D01*
X65595231Y-47640543D01*
X65556918Y-47700202D01*
X65522851Y-47729764D01*
X65376716Y-47907988D01*
X65262699Y-48108287D01*
X65223872Y-48215253D01*
X65184060Y-48324933D01*
X65143048Y-48551731D01*
X65141467Y-48716544D01*
X65140837Y-48782196D01*
X65162827Y-48918722D01*
X65177487Y-49009742D01*
X65247209Y-49213962D01*
X65251952Y-49227855D01*
X65362102Y-49430305D01*
X65504789Y-49611302D01*
X65675931Y-49765670D01*
X65812195Y-49851979D01*
X65970864Y-49952480D01*
X65696925Y-50118709D01*
X65609888Y-50194237D01*
X65522851Y-50269764D01*
X65376716Y-50447988D01*
X65262699Y-50648287D01*
X65224697Y-50752981D01*
X65184060Y-50864933D01*
X65143048Y-51091731D01*
X65140837Y-51322193D01*
X65177487Y-51549742D01*
X65285630Y-51866500D01*
X60719778Y-51866500D01*
X60710088Y-51864334D01*
X60710087Y-51864334D01*
X60641169Y-51866500D01*
X60610422Y-51866500D01*
X60600237Y-51867787D01*
X60562647Y-51868968D01*
X60550116Y-51869362D01*
X60521148Y-51877778D01*
X60491212Y-51881560D01*
X60467896Y-51890791D01*
X60444577Y-51900023D01*
X60412474Y-51909350D01*
X60396421Y-51914014D01*
X60370454Y-51929371D01*
X60356427Y-51934925D01*
X60342402Y-51940477D01*
X60342401Y-51940477D01*
X60342400Y-51940478D01*
X60301823Y-51969959D01*
X60258658Y-51995487D01*
X60258241Y-51995855D01*
X60237145Y-52016951D01*
X60212917Y-52034554D01*
X60181187Y-52072909D01*
X60162592Y-52091504D01*
X60054513Y-52091504D01*
X59867713Y-52131210D01*
X59693250Y-52208886D01*
X59693248Y-52208887D01*
X59538750Y-52321136D01*
X59538749Y-52321137D01*
X59497904Y-52366500D01*
X49662405Y-52366500D01*
X48465567Y-51169662D01*
X48457376Y-51091730D01*
X48443538Y-50960073D01*
X48384524Y-50778446D01*
X48372592Y-50757779D01*
X48289037Y-50613056D01*
X48161253Y-50471138D01*
X48006752Y-50358887D01*
X48002314Y-50356911D01*
X47832287Y-50281210D01*
X47645487Y-50241504D01*
X47454513Y-50241504D01*
X47267713Y-50281210D01*
X47097686Y-50356911D01*
X47093248Y-50358887D01*
X46938747Y-50471138D01*
X46810963Y-50613056D01*
X46793619Y-50643098D01*
X46742237Y-50692091D01*
X46672523Y-50705528D01*
X46606612Y-50679141D01*
X46565430Y-50621309D01*
X46558500Y-50580098D01*
X46558500Y-50109029D01*
X53440807Y-50109029D01*
X53478296Y-50356912D01*
X53514538Y-50469792D01*
X53549954Y-50580098D01*
X53554935Y-50595613D01*
X53651304Y-50784747D01*
X53668753Y-50818993D01*
X53816817Y-51021297D01*
X53963476Y-51165922D01*
X53995323Y-51197327D01*
X54199677Y-51342554D01*
X54424621Y-51453241D01*
X54576523Y-51499682D01*
X54664368Y-51526539D01*
X54788560Y-51543551D01*
X54912751Y-51560563D01*
X54912752Y-51560563D01*
X55163374Y-51554439D01*
X55409803Y-51508321D01*
X55645682Y-51423399D01*
X55864951Y-51301856D01*
X55968972Y-51220000D01*
X56061968Y-51146820D01*
X56231660Y-50962281D01*
X56369666Y-50752983D01*
X56377668Y-50735179D01*
X56472436Y-50524311D01*
X56492887Y-50447988D01*
X56537323Y-50282150D01*
X56562657Y-50032732D01*
X56563000Y-50000000D01*
X56551602Y-49858339D01*
X56542894Y-49750106D01*
X56523423Y-49670835D01*
X56483094Y-49506643D01*
X56385136Y-49275866D01*
X56251542Y-49063725D01*
X56085754Y-48875675D01*
X56085751Y-48875672D01*
X55892025Y-48716544D01*
X55675350Y-48590436D01*
X55441300Y-48500592D01*
X55441299Y-48500592D01*
X55441297Y-48500591D01*
X55195897Y-48449325D01*
X54945454Y-48437952D01*
X54945452Y-48437952D01*
X54862439Y-48447557D01*
X54696408Y-48466767D01*
X54455187Y-48535026D01*
X54455184Y-48535027D01*
X54455182Y-48535028D01*
X54227969Y-48640979D01*
X54020618Y-48781895D01*
X53838465Y-48954149D01*
X53686194Y-49153310D01*
X53686192Y-49153313D01*
X53567724Y-49374254D01*
X53486105Y-49611297D01*
X53443433Y-49858339D01*
X53442465Y-49950711D01*
X53440807Y-50109029D01*
X46558500Y-50109029D01*
X46558500Y-46985178D01*
X47524431Y-46985178D01*
X47621278Y-47054005D01*
X47839032Y-47161153D01*
X48071105Y-47232105D01*
X48311543Y-47265041D01*
X48554148Y-47259113D01*
X48792693Y-47214470D01*
X49021027Y-47132264D01*
X49233281Y-47014610D01*
X49268941Y-46986550D01*
X49242169Y-46959778D01*
X50064431Y-46959778D01*
X50161278Y-47028605D01*
X50379032Y-47135753D01*
X50611105Y-47206705D01*
X50851543Y-47239641D01*
X51094148Y-47233713D01*
X51332693Y-47189070D01*
X51561027Y-47106864D01*
X51773281Y-46989210D01*
X51808941Y-46961150D01*
X50936000Y-46088209D01*
X50064431Y-46959778D01*
X49242169Y-46959778D01*
X48396000Y-46113609D01*
X47524431Y-46985178D01*
X46558500Y-46985178D01*
X46558500Y-45859944D01*
X46886686Y-45859944D01*
X46922975Y-46099894D01*
X46997161Y-46330957D01*
X47107339Y-46547194D01*
X47165090Y-46626101D01*
X48036791Y-45754400D01*
X48755209Y-45754400D01*
X49627379Y-46626570D01*
X49673184Y-46557103D01*
X49705092Y-46600699D01*
X50576791Y-45729000D01*
X51295209Y-45729000D01*
X52167378Y-46601169D01*
X52261852Y-46457891D01*
X52361333Y-46236539D01*
X52424145Y-46002124D01*
X52448668Y-45760685D01*
X52449000Y-45728999D01*
X52429537Y-45487101D01*
X52371650Y-45251425D01*
X52276826Y-45028033D01*
X52168383Y-44855826D01*
X51295209Y-45729000D01*
X50576791Y-45729000D01*
X49704502Y-44856711D01*
X49654293Y-44922380D01*
X49628381Y-44881229D01*
X48755209Y-45754400D01*
X48036791Y-45754400D01*
X47164502Y-44882111D01*
X47124222Y-44934794D01*
X47009542Y-45148672D01*
X46930533Y-45378132D01*
X46889227Y-45617270D01*
X46886686Y-45859944D01*
X46558500Y-45859944D01*
X46558500Y-44523421D01*
X47524230Y-44523421D01*
X48396000Y-45395191D01*
X49270305Y-44520886D01*
X49259493Y-44512003D01*
X49235470Y-44498021D01*
X50064230Y-44498021D01*
X50936000Y-45369791D01*
X51810305Y-44495486D01*
X51799493Y-44486603D01*
X51589742Y-44364525D01*
X51363184Y-44277558D01*
X51125628Y-44227930D01*
X50883199Y-44216922D01*
X50642126Y-44244815D01*
X50408609Y-44310893D01*
X50188667Y-44413454D01*
X50064230Y-44498021D01*
X49235470Y-44498021D01*
X49049742Y-44389925D01*
X48823184Y-44302958D01*
X48585628Y-44253330D01*
X48343199Y-44242322D01*
X48102126Y-44270215D01*
X47868609Y-44336293D01*
X47648667Y-44438854D01*
X47524230Y-44523421D01*
X46558500Y-44523421D01*
X46558500Y-44114180D01*
X47314181Y-43358500D01*
X58085820Y-43358500D01*
X58305500Y-43578181D01*
X58305500Y-44421041D01*
X58171656Y-44512003D01*
X58115948Y-44549862D01*
X57939622Y-44716605D01*
X57939618Y-44716609D01*
X57792222Y-44909395D01*
X57677542Y-45123272D01*
X57598533Y-45352732D01*
X57557227Y-45591870D01*
X57554686Y-45834544D01*
X57578879Y-45994511D01*
X57590975Y-46074495D01*
X57665162Y-46305559D01*
X57775337Y-46521791D01*
X57813920Y-46574508D01*
X57918666Y-46717626D01*
X58091461Y-46888025D01*
X58289274Y-47028603D01*
X58289277Y-47028604D01*
X58289279Y-47028606D01*
X58507028Y-47135752D01*
X58739105Y-47206705D01*
X58979542Y-47239641D01*
X58979543Y-47239641D01*
X59222148Y-47233713D01*
X59460693Y-47189070D01*
X59689027Y-47106864D01*
X59746331Y-47075100D01*
X59901281Y-46989210D01*
X59997587Y-46913425D01*
X60091996Y-46839133D01*
X60335330Y-46574508D01*
X60458666Y-46743026D01*
X60631461Y-46913425D01*
X60829274Y-47054003D01*
X60829277Y-47054004D01*
X60829279Y-47054006D01*
X61047028Y-47161152D01*
X61279105Y-47232105D01*
X61519542Y-47265041D01*
X61519543Y-47265041D01*
X61762148Y-47259113D01*
X62000693Y-47214470D01*
X62229027Y-47132264D01*
X62312257Y-47086129D01*
X62441281Y-47014610D01*
X62510960Y-46959778D01*
X62631996Y-46864533D01*
X62796259Y-46685897D01*
X62835688Y-46626101D01*
X62929852Y-46483293D01*
X63029333Y-46261938D01*
X63036139Y-46236539D01*
X63092145Y-46027524D01*
X63116668Y-45786085D01*
X63117000Y-45754399D01*
X63101701Y-45564256D01*
X63097537Y-45512500D01*
X63062484Y-45369791D01*
X63042886Y-45289997D01*
X65137000Y-45289997D01*
X65137000Y-45886000D01*
X66246000Y-45886000D01*
X66246000Y-44777000D01*
X65649998Y-44777000D01*
X65436895Y-44823358D01*
X65314055Y-44902301D01*
X65218437Y-45012651D01*
X65157780Y-45145474D01*
X65137000Y-45289997D01*
X63042886Y-45289997D01*
X63039650Y-45276825D01*
X62944824Y-45053428D01*
X62815508Y-44848078D01*
X62655018Y-44666038D01*
X62467494Y-44512004D01*
X62467493Y-44512003D01*
X62467490Y-44512001D01*
X62257746Y-44389927D01*
X62257742Y-44389925D01*
X62031184Y-44302958D01*
X61874452Y-44270215D01*
X61793629Y-44253330D01*
X61712818Y-44249661D01*
X61551199Y-44242322D01*
X61551197Y-44242322D01*
X61310123Y-44270215D01*
X61076610Y-44336292D01*
X60856666Y-44438854D01*
X60655948Y-44575262D01*
X60479622Y-44742005D01*
X60351790Y-44909203D01*
X60204388Y-44742009D01*
X60115018Y-44640639D01*
X60115016Y-44640638D01*
X60115014Y-44640635D01*
X59927493Y-44486602D01*
X59822500Y-44425495D01*
X59822500Y-43320457D01*
X59827035Y-43290646D01*
X59826514Y-43284246D01*
X59822500Y-43234891D01*
X59822500Y-43221114D01*
X59818794Y-43189323D01*
X59812699Y-43114395D01*
X59812698Y-43114393D01*
X59812698Y-43114390D01*
X59808574Y-43101656D01*
X59807023Y-43088360D01*
X59781375Y-43017700D01*
X59758201Y-42946166D01*
X59751255Y-42934720D01*
X59746687Y-42922135D01*
X59727065Y-42892207D01*
X59705462Y-42859256D01*
X59666465Y-42794993D01*
X59657325Y-42784644D01*
X59657323Y-42784642D01*
X59654293Y-42781211D01*
X59649731Y-42774253D01*
X59596660Y-42723979D01*
X58976265Y-42103585D01*
X58958390Y-42079294D01*
X58915745Y-42043065D01*
X58906015Y-42033335D01*
X58880954Y-42013507D01*
X58823623Y-41964802D01*
X58811693Y-41958710D01*
X58801196Y-41950405D01*
X58733119Y-41918588D01*
X58666138Y-41884386D01*
X58666136Y-41884386D01*
X58666135Y-41884385D01*
X58653124Y-41881201D01*
X58640998Y-41875534D01*
X58640996Y-41875534D01*
X58640995Y-41875533D01*
X58567409Y-41860227D01*
X58494370Y-41842355D01*
X58480589Y-41841500D01*
X58480587Y-41841500D01*
X58476010Y-41841216D01*
X58467870Y-41839523D01*
X58394802Y-41841500D01*
X47056456Y-41841500D01*
X47026645Y-41836965D01*
X46970891Y-41841500D01*
X46957114Y-41841500D01*
X46925324Y-41845206D01*
X46865381Y-41850082D01*
X46850393Y-41851301D01*
X46837656Y-41855427D01*
X46828791Y-41856461D01*
X46824357Y-41856978D01*
X46815412Y-41860225D01*
X46753663Y-41882638D01*
X46748272Y-41884385D01*
X46682168Y-41905799D01*
X46670724Y-41912743D01*
X46658137Y-41917312D01*
X46656191Y-41918588D01*
X46595248Y-41958544D01*
X46530993Y-41997535D01*
X46530992Y-41997536D01*
X46517210Y-42009708D01*
X46510253Y-42014269D01*
X46482973Y-42043067D01*
X46459972Y-42067347D01*
X45303582Y-43223738D01*
X45279295Y-43241610D01*
X45243072Y-43284248D01*
X45233338Y-43293981D01*
X45233335Y-43293985D01*
X45213483Y-43319078D01*
X45164804Y-43376376D01*
X45158715Y-43388301D01*
X45153875Y-43394419D01*
X45150404Y-43398805D01*
X45126220Y-43450552D01*
X45118574Y-43466911D01*
X45084386Y-43533865D01*
X45081203Y-43546873D01*
X45075533Y-43559004D01*
X45060219Y-43632629D01*
X45042356Y-43705630D01*
X45041217Y-43723984D01*
X45039523Y-43732129D01*
X45041501Y-43805235D01*
X45041501Y-45580030D01*
X45021499Y-45648151D01*
X44967843Y-45694644D01*
X44897569Y-45704748D01*
X44832989Y-45675254D01*
X44800619Y-45631780D01*
X44730952Y-45477125D01*
X44602240Y-45285942D01*
X44602238Y-45285939D01*
X44443151Y-45119173D01*
X44258241Y-44981596D01*
X44052794Y-44877141D01*
X43832684Y-44808796D01*
X43604206Y-44778513D01*
X43604203Y-44778513D01*
X43489049Y-44782836D01*
X43373892Y-44787160D01*
X43148328Y-44834488D01*
X43148326Y-44834489D01*
X43148325Y-44834489D01*
X42933963Y-44919144D01*
X42736925Y-45038709D01*
X42644201Y-45119172D01*
X42562851Y-45189764D01*
X42552849Y-45201962D01*
X42494191Y-45241956D01*
X42423221Y-45243888D01*
X42362472Y-45207144D01*
X42332296Y-45148855D01*
X42316642Y-45076894D01*
X42301565Y-45053433D01*
X42237700Y-44954056D01*
X42127349Y-44858437D01*
X41994529Y-44797780D01*
X41920665Y-44787160D01*
X41850003Y-44777000D01*
X40149998Y-44777000D01*
X39936895Y-44823358D01*
X39936894Y-44823359D01*
X39936892Y-44823359D01*
X39814056Y-44902300D01*
X39814055Y-44902301D01*
X39729725Y-44999624D01*
X39669999Y-45038008D01*
X39599002Y-45038008D01*
X39539276Y-44999625D01*
X39508500Y-44917112D01*
X39508500Y-40025757D01*
X39521102Y-39901694D01*
X39531499Y-39868517D01*
X39550650Y-39807407D01*
X39598554Y-39720986D01*
X39662855Y-39645964D01*
X39740930Y-39585404D01*
X39829588Y-39541778D01*
X39931268Y-39515292D01*
X40019532Y-39508500D01*
X69974243Y-39508500D01*
X70098305Y-39521102D01*
G37*
%TD.AperFunction*%
M02*
