M48
; DRILL file {KiCad (5.99.0-3309-g5424d6fa0)} date Wed Oct  7 16:54:12 2020
; FORMAT={-:-/ absolute / inch / decimal}
; #@! TF.CreationDate,2020-10-07T16:54:12+02:00
; #@! TF.GenerationSoftware,Kicad,Pcbnew,(5.99.0-3309-g5424d6fa0)
; #@! TF.FileFunction,Plated,1,2,PTH
FMAT,2
INCH
T1C0.0157
T2C0.0354
T3C0.0394
%
G90
G05
T1
X1.872Y-2.0138
X1.9547Y-2.2441
X2.2441Y-2.5748
X2.2441Y-2.6063
X2.3681Y-2.0866
X2.3858Y-2.3543
X2.5098Y-2.3169
T2
X2.2333Y-2.1654
X2.3333Y-2.1654
X1.9961Y-2.1654
X2.0961Y-2.1654
T3
X1.6142Y-1.8165
X1.6142Y-1.9165
X1.6142Y-2.0165
X1.6142Y-2.1165
X1.6142Y-2.2165
X1.6142Y-2.3165
X1.6142Y-2.4165
X1.6142Y-2.5165
X1.6142Y-2.6165
X1.6142Y-2.7165
X1.7142Y-1.8165
X1.7142Y-1.9165
X1.7142Y-2.0165
X1.7142Y-2.1165
X1.7142Y-2.2165
X1.7142Y-2.3165
X1.7142Y-2.4165
X1.7142Y-2.5165
X1.7142Y-2.6165
X1.7142Y-2.7165
X2.6181Y-1.8165
X2.6181Y-1.9165
X2.6181Y-2.0165
X2.6181Y-2.1165
X2.6181Y-2.2165
X2.6181Y-2.3165
X2.6181Y-2.4165
X2.6181Y-2.5165
X2.6181Y-2.6165
X2.6181Y-2.7165
X2.7181Y-1.8165
X2.7181Y-1.9165
X2.7181Y-2.0165
X2.7181Y-2.1165
X2.7181Y-2.2165
X2.7181Y-2.3165
X2.7181Y-2.4165
X2.7181Y-2.5165
X2.7181Y-2.6165
X2.7181Y-2.7165
X1.9054Y-1.8014
X1.9054Y-2.5274
X2.0054Y-1.8004
X2.0054Y-2.5304
X2.3254Y-1.8004
X2.3254Y-2.5304
X2.4254Y-1.8014
X2.4254Y-2.5274
T0
M30
