%TF.GenerationSoftware,KiCad,Pcbnew,(5.99.0-3309-g5424d6fa0)*%
%TF.CreationDate,2020-10-07T16:53:38+02:00*%
%TF.ProjectId,ehz-adapter-v2,65687a2d-6164-4617-9074-65722d76322e,rev?*%
%TF.SameCoordinates,Original*%
%TF.FileFunction,Legend,Bot*%
%TF.FilePolarity,Positive*%
%FSLAX46Y46*%
G04 Gerber Fmt 4.6, Leading zero omitted, Abs format (unit mm)*
G04 Created by KiCad (PCBNEW (5.99.0-3309-g5424d6fa0)) date 2020-10-07 16:53:38*
%MOMM*%
%LPD*%
G01*
G04 APERTURE LIST*
%TA.AperFunction,Profile*%
%ADD10C,0.100000*%
%TD*%
%ADD11C,0.100000*%
%ADD12C,0.120000*%
G04 APERTURE END LIST*
D10*
X40000000Y-39000000D02*
G75*
G03*
X39000000Y-40000000I0J-1000000D01*
G01*
X40000000Y-39000000D02*
X70000000Y-39000000D01*
X71000000Y-40000000D02*
X71000000Y-70000000D01*
X39000000Y-70000000D02*
X39000000Y-40000000D01*
X71000000Y-40000000D02*
G75*
G03*
X70000000Y-39000000I-1000000J0D01*
G01*
X39000000Y-70000000D02*
G75*
G03*
X40000000Y-71000000I1000000J0D01*
G01*
X70000000Y-71000000D02*
X40000000Y-71000000D01*
X70000000Y-71000000D02*
G75*
G03*
X71000000Y-70000000I0J1000000D01*
G01*
D11*
X58066666Y-58333333D02*
X58133333Y-58300000D01*
X58200000Y-58233333D01*
X58300000Y-58133333D01*
X58366666Y-58100000D01*
X58433333Y-58100000D01*
X58400000Y-58266666D02*
X58466666Y-58233333D01*
X58533333Y-58166666D01*
X58566666Y-58033333D01*
X58566666Y-57800000D01*
X58533333Y-57666666D01*
X58466666Y-57600000D01*
X58400000Y-57566666D01*
X58266666Y-57566666D01*
X58200000Y-57600000D01*
X58133333Y-57666666D01*
X58100000Y-57800000D01*
X58100000Y-58033333D01*
X58133333Y-58166666D01*
X58200000Y-58233333D01*
X58266666Y-58266666D01*
X58400000Y-58266666D01*
X57433333Y-58266666D02*
X57833333Y-58266666D01*
X57633333Y-58266666D02*
X57633333Y-57566666D01*
X57700000Y-57666666D01*
X57766666Y-57733333D01*
X57833333Y-57766666D01*
X52486666Y-58276666D02*
X52486666Y-57576666D01*
X52320000Y-57576666D01*
X52220000Y-57610000D01*
X52153333Y-57676666D01*
X52120000Y-57743333D01*
X52086666Y-57876666D01*
X52086666Y-57976666D01*
X52120000Y-58110000D01*
X52153333Y-58176666D01*
X52220000Y-58243333D01*
X52320000Y-58276666D01*
X52486666Y-58276666D01*
X51420000Y-58276666D02*
X51820000Y-58276666D01*
X51620000Y-58276666D02*
X51620000Y-57576666D01*
X51686666Y-57676666D01*
X51753333Y-57743333D01*
X51820000Y-57776666D01*
D12*
X59555000Y-53764000D02*
X59555000Y-53920000D01*
X59555000Y-56080000D02*
X59555000Y-56236000D01*
X56322665Y-53921392D02*
G75*
G02*
X59555000Y-53764484I1672335J-1078608D01*
G01*
X56953870Y-53920163D02*
G75*
G02*
X59035961Y-53920000I1041130J-1079837D01*
G01*
X56322665Y-56078608D02*
G75*
G03*
X59555000Y-56235516I1672335J1078608D01*
G01*
X56953870Y-56079837D02*
G75*
G03*
X59035961Y-56080000I1041130J1079837D01*
G01*
X50410000Y-53920000D02*
X50410000Y-53764000D01*
X50410000Y-56236000D02*
X50410000Y-56080000D01*
X53642335Y-56078608D02*
G75*
G02*
X50410000Y-56235516I-1672335J1078608D01*
G01*
X53011130Y-56079837D02*
G75*
G02*
X50929039Y-56080000I-1041130J1079837D01*
G01*
X53011130Y-53920163D02*
G75*
G03*
X50929039Y-53920000I-1041130J-1079837D01*
G01*
X53642335Y-53921392D02*
G75*
G03*
X50410000Y-53764484I-1672335J-1078608D01*
G01*
M02*
